<svg xmlns="http://www.w3.org/2000/svg" viewBox="0 0 80 80" fill="none">
  <circle cx="40" cy="40" r="40" fill="#F2E0D0"/>
  <circle cx="40" cy="30" r="14" fill="#E8C4A0"/>
  <ellipse cx="40" cy="62" rx="22" ry="16" fill="#203b77"/>
  <circle cx="40" cy="30" r="12" fill="#E8C4A0"/>
  <circle cx="36" cy="28" r="1.5" fill="#4A3728"/>
  <circle cx="44" cy="28" r="1.5" fill="#4A3728"/>
  <path d="M37 33c0 0 1.5 2 3 2s3-2 3-2" stroke="#C4A080" stroke-width="1.2" fill="none" stroke-linecap="round"/>
  <path d="M26 24c0-10 8-16 16-14 8 2 12 8 12 14 0 0-2-8-14-8s-14 8-14 8z" fill="#1A0F08"/>
  <path d="M24 26c2-4 6-14 16-14s14 10 16 14" stroke="#1A0F08" stroke-width="3" fill="none"/>
</svg>
