<svg width="1600" height="1000" viewBox="0 0 1600 1000" fill="none" xmlns="http://www.w3.org/2000/svg">
  <rect width="1600" height="1000" fill="url(#bg)"/>
  <circle cx="230" cy="180" r="150" fill="#FFFFFF" fill-opacity="0.18"/>
  <circle cx="1380" cy="170" r="170" fill="#FFFFFF" fill-opacity="0.12"/>
  <circle cx="1280" cy="820" r="240" fill="#FFFFFF" fill-opacity="0.08"/>
  <rect x="220" y="260" width="1160" height="560" rx="42" fill="#FFFFFF" fill-opacity="0.18"/>
  <rect x="300" y="340" width="520" height="36" rx="18" fill="#FFFFFF" fill-opacity="0.92"/>
  <rect x="300" y="398" width="420" height="24" rx="12" fill="#CFE9FF"/>
  <rect x="300" y="452" width="820" height="18" rx="9" fill="#E9F4FF" fill-opacity="0.9"/>
  <rect x="300" y="486" width="760" height="18" rx="9" fill="#E9F4FF" fill-opacity="0.78"/>
  <rect x="300" y="520" width="660" height="18" rx="9" fill="#E9F4FF" fill-opacity="0.7"/>
  <rect x="300" y="602" width="250" height="64" rx="18" fill="#FFFFFF"/>
  <rect x="572" y="602" width="250" height="64" rx="18" fill="#203B77" fill-opacity="0.9"/>
  <rect x="1110" y="330" width="180" height="180" rx="26" fill="#FFFFFF" fill-opacity="0.88"/>
  <circle cx="1200" cy="410" r="46" fill="#2CA9DF"/>
  <rect x="1128" y="540" width="144" height="18" rx="9" fill="#FFFFFF" fill-opacity="0.8"/>
  <rect x="1128" y="570" width="104" height="14" rx="7" fill="#FFFFFF" fill-opacity="0.6"/>
  <defs>
    <linearGradient id="bg" x1="140" y1="80" x2="1460" y2="920" gradientUnits="userSpaceOnUse">
      <stop stop-color="#2CA9DF"/>
      <stop offset="1" stop-color="#203B77"/>
    </linearGradient>
  </defs>
</svg>
