<svg width="1400" height="1000" viewBox="0 0 1400 1000" fill="none" xmlns="http://www.w3.org/2000/svg">
  <rect width="1400" height="1000" fill="url(#bg)"/>
  <rect x="130" y="140" width="1140" height="720" rx="44" fill="#FFFFFF" fill-opacity="0.15"/>
  <rect x="220" y="250" width="700" height="460" rx="28" fill="#FFFFFF" fill-opacity="0.2"/>
  <rect x="280" y="320" width="320" height="30" rx="15" fill="#FFFFFF" fill-opacity="0.92"/>
  <rect x="280" y="374" width="250" height="20" rx="10" fill="#D4EEFF"/>
  <rect x="280" y="430" width="560" height="16" rx="8" fill="#E8F6FF"/>
  <rect x="280" y="460" width="520" height="16" rx="8" fill="#E8F6FF" fill-opacity="0.8"/>
  <rect x="280" y="490" width="450" height="16" rx="8" fill="#E8F6FF" fill-opacity="0.68"/>
  <rect x="960" y="250" width="210" height="210" rx="30" fill="#FFFFFF" fill-opacity="0.9"/>
  <rect x="960" y="500" width="210" height="210" rx="30" fill="#FFFFFF" fill-opacity="0.86"/>
  <circle cx="1065" cy="355" r="54" fill="#2CA9DF"/>
  <path d="M1028 357L1052 381L1104 329" stroke="white" stroke-width="14" stroke-linecap="round" stroke-linejoin="round"/>
  <circle cx="1038" cy="590" r="18" fill="#203B77"/>
  <circle cx="1088" cy="590" r="18" fill="#2CA9DF"/>
  <circle cx="1063" cy="635" r="18" fill="#4BC2F1"/>
  <defs>
    <linearGradient id="bg" x1="120" y1="120" x2="1250" y2="900" gradientUnits="userSpaceOnUse">
      <stop stop-color="#203B77"/>
      <stop offset="1" stop-color="#2CA9DF"/>
    </linearGradient>
  </defs>
</svg>
